# xmcd CD database file
#
# Track frame offsets:
#	150
#	13950
#	31277
#	49087
#	65340
#	84685
#	99475
#	111052
#	127282
#	150662
#
# Disc length: 2371 seconds
#
# Revision: 0
# Processed by: cddbd v1.5.1PL0 Copyright (c) Steve Scherf et al.
# Submitted via: CDex 1.51
#
DISCID=8309410a
DTITLE=NOVELA - 最終戦争伝説2 Harmagedon Story 2
DYEAR=1984
DGENRE=Progressive Rock
TTITLE0=旅人神話
TTITLE1=記憶の彼方に・・・
TTITLE2=暗黒の魔女
TTITLE3=心、澄まして
TTITLE4=戦士のララバイ
TTITLE5=七時の鐘
TTITLE6=うたかたの夢
TTITLE7=運命の生神
TTITLE8=精神飛行
TTITLE9=めぐりあい AGAIN
EXTD=YEAR: 1984
EXTT0=
EXTT1=
EXTT2=
EXTT3=
EXTT4=
EXTT5=
EXTT6=
EXTT7=
EXTT8=
EXTT9=
PLAYORDER=
